<svg id="SvgjsSvg1047" width="288" height="288" xmlns="http://www.w3.org/2000/svg" version="1.1" xmlns:xlink="http://www.w3.org/1999/xlink" xmlns:svgjs="http://svgjs.com/svgjs"><defs id="SvgjsDefs1048"></defs><g id="SvgjsG1049"><svg xmlns="http://www.w3.org/2000/svg" viewBox="0 0 32 32" width="288" height="288"><path d="M27,7H5a3,3,0,0,0-3,3V26a3,3,0,0,0,3,3H27a3,3,0,0,0,3-3V10A3,3,0,0,0,27,7ZM16,23a1,1,0,0,1-1,1H7a1,1,0,0,1-1-1V20.78a4.75,4.75,0,0,1,2.48-4.16,3,3,0,1,1,5,0A4.75,4.75,0,0,1,16,20.78Zm9,1H19a1,1,0,0,1,0-2h6a1,1,0,0,1,0,2Zm0-4H19a1,1,0,0,1,0-2h6a1,1,0,0,1,0,2Zm0-4H17a1,1,0,0,1,0-2h8a1,1,0,0,1,0,2ZM10,15a1,1,0,1,1,1,1A1,1,0,0,1,10,15Zm4,5.78V22H8V20.78A2.79,2.79,0,0,1,10.78,18h.44A2.79,2.79,0,0,1,14,20.78ZM21,5H11a1,1,0,0,1,0-2H21a1,1,0,0,1,0,2Z" data-name="id card" fill="#ffffff" class="color000 svgShape"></path></svg></g></svg>